<svg width="32" height="32" viewBox="0 0 32 32" fill="none" xmlns="http://www.w3.org/2000/svg">
<path d="M30.7103 31.8204H1.11001C0.503206 31.8204 0 31.3172 0 30.7104C0 30.1035 0.503206 29.6003 1.11001 29.6003H30.7103C31.3171 29.6003 31.8204 30.1035 31.8204 30.7104C31.8204 31.3172 31.3171 31.8204 30.7103 31.8204Z" fill="#989AA7"/>
<path d="M19.2402 31.8204H12.5801C11.9733 31.8204 11.4701 31.3171 11.4701 30.7103V4.07004C11.4701 1.52442 12.8761 0 15.2442 0H16.5762C18.9442 0 20.3502 1.52442 20.3502 4.07004V30.7103C20.3502 31.3171 19.847 31.8204 19.2402 31.8204ZM13.6901 29.6003H18.1302V4.07004C18.1302 2.36803 17.331 2.22002 16.5762 2.22002H15.2442C14.4894 2.22002 13.6901 2.36803 13.6901 4.07004V29.6003Z" fill="#989AA7"/>
<path d="M8.51009 31.8203H2.59002C1.98322 31.8203 1.48001 31.3171 1.48001 30.7103V12.9501C1.48001 10.4045 2.78243 8.88007 4.95805 8.88007H6.14206C8.31769 8.88007 9.6201 10.4045 9.6201 12.9501V30.7103C9.6201 31.3171 9.1169 31.8203 8.51009 31.8203ZM3.70004 29.6003H7.40008V12.9501C7.40008 11.1001 6.58607 11.1001 6.14206 11.1001H4.95805C4.51404 11.1001 3.70004 11.1001 3.70004 12.9501V29.6003Z" fill="#989AA7"/>
<path d="M29.2303 31.8203H23.3103C22.7035 31.8203 22.2003 31.3171 22.2003 30.7103V20.3502C22.2003 17.8046 23.5027 16.2802 25.6783 16.2802H26.8623C29.0379 16.2802 30.3403 17.8046 30.3403 20.3502V30.7103C30.3403 31.3171 29.8371 31.8203 29.2303 31.8203ZM24.4203 29.6003H28.1203V20.3502C28.1203 18.5002 27.3063 18.5002 26.8623 18.5002H25.6783C25.2343 18.5002 24.4203 18.5002 24.4203 20.3502V29.6003Z" fill="#989AA7"/>
</svg>
