<svg width="34" height="34" viewBox="0 0 34 34" fill="none" xmlns="http://www.w3.org/2000/svg">
<circle cx="17" cy="17" r="15.5" stroke="#191C47" stroke-width="3"/>
<path d="M17 26C12.0353 26 8 21.9647 8 17C8 12.0353 12.0353 8 17 8C21.9647 8 26 12.0353 26 17C26 21.9647 21.9647 26 17 26ZM17 9.25581C12.7302 9.25581 9.25581 12.7302 9.25581 17C9.25581 21.2698 12.7302 24.7442 17 24.7442C21.2698 24.7442 24.7442 21.2698 24.7442 17C24.7442 12.7302 21.2698 9.25581 17 9.25581Z" fill="#191C47" stroke="#191C47" stroke-width="0.5"/>
<path d="M15.8107 19.9973C15.6433 19.9973 15.4842 19.9303 15.367 19.8131L12.9976 17.4438C12.7549 17.201 12.7549 16.7991 12.9976 16.5563C13.2404 16.3136 13.6423 16.3136 13.8851 16.5563L15.8107 18.4819L20.114 14.1787C20.3568 13.9359 20.7586 13.9359 21.0014 14.1787C21.2442 14.4215 21.2442 14.8233 21.0014 15.0661L16.2544 19.8131C16.1372 19.9303 15.9782 19.9973 15.8107 19.9973Z" fill="#191C47" stroke="#191C47" stroke-width="0.5"/>
</svg>
