<svg width="32" height="32" viewBox="0 0 32 32" fill="none" xmlns="http://www.w3.org/2000/svg">
<circle cx="16" cy="16" r="15" fill="#FEBD90" stroke="#191C47" stroke-width="2"/>
<path d="M16 25C11.0353 25 7 20.9647 7 16C7 11.0353 11.0353 7 16 7C20.9647 7 25 11.0353 25 16C25 20.9647 20.9647 25 16 25ZM16 8.25581C11.7302 8.25581 8.25581 11.7302 8.25581 16C8.25581 20.2698 11.7302 23.7442 16 23.7442C20.2698 23.7442 23.7442 20.2698 23.7442 16C23.7442 11.7302 20.2698 8.25581 16 8.25581Z" fill="#191C47" stroke="#191C47" stroke-width="0.5"/>
<path d="M14.8107 18.9973C14.6433 18.9973 14.4842 18.9303 14.367 18.8131L11.9976 16.4438C11.7549 16.201 11.7549 15.7992 11.9976 15.5564C12.2404 15.3136 12.6423 15.3136 12.8851 15.5564L14.8107 17.4819L19.114 13.1787C19.3568 12.9359 19.7586 12.9359 20.0014 13.1787C20.2442 13.4215 20.2442 13.8233 20.0014 14.0661L15.2544 18.8131C15.1372 18.9303 14.9782 18.9973 14.8107 18.9973Z" fill="#191C47" stroke="#191C47" stroke-width="0.5"/>
</svg>
