<svg width="32" height="32" viewBox="0 0 32 32" fill="none" xmlns="http://www.w3.org/2000/svg">
<path d="M23.4419 32H8.55814C1.99442 32 0 30.0056 0 23.4419V8.55814C0 1.99442 1.99442 0 8.55814 0H10.7907C13.3953 0 14.214 0.848372 15.2558 2.23256L17.4884 5.2093C17.9795 5.86419 18.054 5.95349 18.9767 5.95349H23.4419C30.0056 5.95349 32 7.94791 32 14.5116V23.4419C32 30.0056 30.0056 32 23.4419 32ZM8.55814 2.23256C3.24465 2.23256 2.23256 3.24465 2.23256 8.55814V23.4419C2.23256 28.7553 3.24465 29.7674 8.55814 29.7674H23.4419C28.7553 29.7674 29.7674 28.7553 29.7674 23.4419V14.5116C29.7674 9.19814 28.7553 8.18605 23.4419 8.18605H18.9767C17.0716 8.18605 16.4465 7.53116 15.7023 6.54884L13.4698 3.57209C12.6958 2.54512 12.4726 2.23256 10.7907 2.23256H8.55814Z" fill="#989AA7"/>
<path d="M15.5752 21.5943C12.5136 21.5943 10.0218 19.1025 10.0218 16.0409C10.0218 12.9792 12.5136 10.4874 15.5752 10.4874C18.6369 10.4874 21.1287 12.9792 21.1287 16.0409C21.1287 19.1025 18.6369 21.5943 15.5752 21.5943ZM15.5752 11.9362C13.3152 11.9362 11.4705 13.7809 11.4705 16.0409C11.4705 18.3009 13.3152 20.1456 15.5752 20.1456C17.8353 20.1456 19.68 18.3009 19.68 16.0409C19.68 13.7809 17.8353 11.9362 15.5752 11.9362Z" fill="#989AA7"/>
<path d="M23.8717 31.2525C23.4757 31.2525 23.1473 30.9242 23.1473 30.5282C23.1473 27.1961 19.7477 24.4918 15.5754 24.4918C11.403 24.4918 8.00335 27.1961 8.00335 30.5282C8.00335 30.9242 7.67498 31.2525 7.27899 31.2525C6.883 31.2525 6.55463 30.9242 6.55463 30.5282C6.55463 26.4041 10.6014 23.0431 15.5754 23.0431C20.5494 23.0431 24.5961 26.4041 24.5961 30.5282C24.5961 30.9242 24.2677 31.2525 23.8717 31.2525Z" fill="#989AA7"/>
</svg>
