<svg width="106" height="121" viewBox="0 0 106 121" fill="none" xmlns="http://www.w3.org/2000/svg">
<path d="M78.9153 120.055C83.9063 120.055 87.9524 115.497 87.9524 109.875C87.9524 104.253 83.9063 99.6954 78.9153 99.6954C73.9242 99.6954 69.8781 104.253 69.8781 109.875C69.8781 115.497 73.9242 120.055 78.9153 120.055Z" fill="#E2E6E7"/>
<path d="M37.6028 120.055C42.5938 120.055 46.6399 115.497 46.6399 109.875C46.6399 104.253 42.5938 99.6954 37.6028 99.6954C32.6117 99.6954 28.5656 104.253 28.5656 109.875C28.5656 115.497 32.6117 120.055 37.6028 120.055Z" fill="#E2E6E7"/>
<path fill-rule="evenodd" clip-rule="evenodd" d="M17.5063 31.3337L18.5391 17.0818C18.5935 16.131 18.3773 14.3645 18.0948 13.4972L25.9237 13.3589H89.3903C98.5307 13.3589 105.502 21.7355 104.831 32.0317C104.676 34.4749 102.869 36.3364 100.7 36.3364H76.7137C76.7137 30.385 71.8892 25.5605 65.9378 25.5605H63.8086H50.6221C48.1155 25.5605 45.9964 27.4163 45.6657 29.9009L44.8094 36.3364H21.6375C19.2104 36.3364 17.2997 34.0677 17.5063 31.3337Z" fill="#E2E6E7"/>
<path d="M100.915 40.0703H81.1105H76.7136L75.5298 53.1444C74.7792 61.4337 67.8301 67.782 59.5068 67.782H47.199C44.2084 67.782 41.8867 65.1743 42.2325 62.2038L44.8094 40.0703H21.6975C19.5286 40.0703 17.7728 41.9317 17.5663 44.3167L15.7072 69.621C14.9842 79.5683 21.9041 88.0612 30.7347 88.0612H88.1596C95.9057 88.0612 102.722 80.9062 103.29 72.1806L104.994 45.0148C105.201 42.3389 103.342 40.0703 100.915 40.0703Z" fill="#E2E6E7"/>
<path d="M12.8586 0C16.5767 0 20.1916 1.8033 22.7736 4.88635C24.053 6.51344 24.3339 7.68005 24.914 9.67883L17.386 9.67883C17.2014 9.47084 17.1892 9.16986 17.0045 8.96187C16.4668 8.78264 16.2451 8.72562 15.7729 8.72562L12.8586 8.72562H3.87306C1.75579 8.72562 0 6.74781 0 4.36281C0 1.97781 1.75579 0 3.87306 0H12.8586Z" fill="#E2E6E7"/>
</svg>
