<svg width="33" height="33" viewBox="0 0 33 33" fill="none" xmlns="http://www.w3.org/2000/svg">
<path d="M24.6511 32.0086H7.39236C3.30868 32.0086 0 28.685 0 24.6013V13.5575C0 11.5305 1.25193 8.98191 2.86156 7.72998L10.8948 1.47032C13.3092 -0.407567 17.1693 -0.49699 19.6732 1.26167L28.8838 7.71508C30.6574 8.9521 32.0435 11.605 32.0435 13.7661V24.6162C32.0435 28.685 28.7348 32.0086 24.6511 32.0086ZM12.2659 3.22899L4.23272 9.48865C3.17454 10.3233 2.23559 12.2161 2.23559 13.5575V24.6013C2.23559 27.4479 4.5457 29.773 7.39236 29.773H24.6511C27.4978 29.773 29.8079 27.4629 29.8079 24.6162V13.7661C29.8079 12.3353 28.7795 10.3531 27.6021 9.54826L18.3915 3.09485C16.6924 1.90254 13.8905 1.96215 12.2659 3.22899Z" fill="#E2E6E7"/>
<path d="M16.0217 26.047C15.4107 26.047 14.9039 25.5403 14.9039 24.9292V20.458C14.9039 19.8469 15.4107 19.3402 16.0217 19.3402C16.6328 19.3402 17.1395 19.8469 17.1395 20.458V24.9292C17.1395 25.5403 16.6328 26.047 16.0217 26.047Z" fill="#E2E6E7"/>
</svg>
