<svg width="30" height="37" viewBox="0 0 30 37" fill="none" xmlns="http://www.w3.org/2000/svg">
<path d="M29 11.9375V29C29 34.25 25.8675 36 22 36H8C4.1325 36 1 34.25 1 29V11.9375C1 6.25 4.1325 4.9375 8 4.9375C8 6.0225 8.43745 7.0025 9.15495 7.72C9.87245 8.4375 10.8525 8.875 11.9375 8.875H18.0625C20.2325 8.875 22 7.1075 22 4.9375C25.8675 4.9375 29 6.25 29 11.9375Z" stroke="#989AA7" stroke-width="2" stroke-linecap="round" stroke-linejoin="round"/>
<path d="M22 4.9375C22 7.1075 20.2325 8.875 18.0625 8.875H11.9375C10.8525 8.875 9.87245 8.4375 9.15495 7.72C8.43745 7.0025 8 6.0225 8 4.9375C8 2.7675 9.7675 1 11.9375 1H18.0625C19.1475 1 20.1275 1.4375 20.845 2.155C21.5625 2.8725 22 3.8525 22 4.9375Z" stroke="#989AA7" stroke-width="2" stroke-linecap="round" stroke-linejoin="round"/>
<path d="M8 20.25H15" stroke="#989AA7" stroke-width="2" stroke-linecap="round" stroke-linejoin="round"/>
<path d="M8 27.25H22" stroke="#989AA7" stroke-width="2" stroke-linecap="round" stroke-linejoin="round"/>
</svg>
