<svg width="29" height="31" viewBox="0 0 29 31" fill="none" xmlns="http://www.w3.org/2000/svg">
<path d="M18.9462 30.7499H18.7701C12.7574 30.7499 9.85938 28.13 9.35832 22.2615C9.30415 21.6477 9.71042 21.0938 10.2792 21.0339C10.8344 20.974 11.3355 21.4381 11.3896 22.0519C11.7824 26.7527 13.7866 28.5043 18.7837 28.5043H18.9597C24.4714 28.5043 26.4215 26.3485 26.4215 20.2554V10.4945C26.4215 4.40139 24.4714 2.24561 18.9597 2.24561H18.7837C13.7595 2.24561 11.7553 4.02712 11.3896 8.81775C11.3219 9.43155 10.8615 9.89564 10.2792 9.83575C9.71042 9.79084 9.30415 9.23693 9.34478 8.62313C9.80521 2.66479 12.7168 0 18.7701 0H18.9462C25.5954 0 28.4392 3.14385 28.4392 10.4945V20.2554C28.4392 27.606 25.5954 30.7499 18.9462 30.7499Z" fill="#989AA7"/>
<path d="M18.458 16.4977H1.01566C0.460434 16.4977 0 15.9887 0 15.3749C0 14.7611 0.460434 14.2521 1.01566 14.2521H18.458C19.0132 14.2521 19.4736 14.7611 19.4736 15.3749C19.4736 15.9887 19.0268 16.4977 18.458 16.4977Z" fill="#989AA7"/>
<path d="M15.4378 21.5131C15.1805 21.5131 14.9232 21.4083 14.7201 21.1837C14.3274 20.7496 14.3274 20.031 14.7201 19.5968L18.539 15.3751L14.7201 11.1534C14.3274 10.7192 14.3274 10.0006 14.7201 9.56646C15.1128 9.13231 15.7628 9.13231 16.1556 9.56646L20.6922 14.5817C21.0849 15.0158 21.0849 15.7344 20.6922 16.1686L16.1556 21.1837C15.9524 21.4083 15.6951 21.5131 15.4378 21.5131Z" fill="#989AA7"/>
</svg>
