<svg width="18" height="23" viewBox="0 0 18 23" fill="none" xmlns="http://www.w3.org/2000/svg">
<path d="M8.97349 20.0938C11.3653 20.0938 13.7571 19.714 16.0257 18.9544C16.888 18.6567 17.5449 18.0511 17.8324 17.2606C18.1301 16.4702 18.0274 15.5977 17.5552 14.8175L16.3747 12.8569C16.1283 12.4463 15.9025 11.6251 15.9025 11.1426V8.176C15.9025 4.35735 12.7922 1.24701 8.97349 1.24701C5.15485 1.24701 2.04451 4.35735 2.04451 8.176V11.1426C2.04451 11.6148 1.81867 12.4463 1.57231 12.8672L0.402081 14.8175C-0.0393219 15.5566 -0.121443 16.4497 0.176247 17.2606C0.473938 18.0716 1.12064 18.6875 1.93159 18.9544C4.18993 19.714 6.58171 20.0938 8.97349 20.0938ZM8.97349 2.78678C11.9402 2.78678 14.3627 5.1991 14.3627 8.176V11.1426C14.3627 11.892 14.6707 13.0006 15.0505 13.6473L16.231 15.608C16.4568 15.9878 16.5184 16.3881 16.385 16.7269C16.2618 17.0759 15.9538 17.3428 15.533 17.4865C11.2421 18.9236 6.69463 18.9236 2.40379 17.4865C2.03424 17.3633 1.74682 17.0861 1.61337 16.7166C1.47992 16.347 1.51072 15.9467 1.71602 15.608L2.89652 13.6473C3.28659 12.9801 3.58428 11.8817 3.58428 11.1323V8.176C3.58428 5.1991 5.9966 2.78678 8.97349 2.78678Z" fill="white"/>
<path d="M7.06447 3.06426C7.13633 3.06426 7.20819 3.054 7.28004 3.03347C7.57773 2.95135 7.86516 2.88976 8.14232 2.8487C9.01486 2.73578 9.8566 2.79737 10.647 3.03347C10.9344 3.12586 11.2424 3.03347 11.4374 2.8179C11.6324 2.60233 11.694 2.29438 11.5811 2.01722C11.1602 0.939376 10.1338 0.231079 8.96353 0.231079C7.7933 0.231079 6.76678 0.92911 6.34591 2.01722C6.24326 2.29438 6.29459 2.60233 6.48962 2.8179C6.6436 2.98214 6.85917 3.06426 7.06447 3.06426Z" fill="white"/>
<path d="M8.97387 22.4345C9.99012 22.4345 10.9756 22.0239 11.6941 21.3054C12.4127 20.5868 12.8233 19.6013 12.8233 18.5851H11.2835C11.2835 19.1907 11.0372 19.7861 10.606 20.2172C10.1749 20.6484 9.57951 20.8947 8.97387 20.8947C7.70099 20.8947 6.66421 19.858 6.66421 18.5851H5.12443C5.12443 20.71 6.84898 22.4345 8.97387 22.4345Z" fill="white"/>
<circle cx="3" cy="3" r="3" transform="matrix(-1 0 0 1 7 0)" fill="#F89CE5"/>
</svg>
