<svg width="27" height="34" viewBox="0 0 27 34" fill="none" xmlns="http://www.w3.org/2000/svg">
<path d="M13.3528 15.4326C13.1862 15.4175 12.9863 15.4175 12.8031 15.4326C8.83837 15.3115 5.68996 12.3584 5.68996 8.72388C5.68996 5.01363 8.98829 2 13.0863 2C17.1676 2 20.4826 5.01363 20.4826 8.72388C20.4659 12.3584 17.3175 15.3115 13.3528 15.4326Z" stroke="#B3B6B7" stroke-width="3" stroke-linecap="round" stroke-linejoin="round"/>
<path d="M5.02347 21.0207C0.992176 23.474 0.992176 27.472 5.02347 29.9101C9.60449 32.6966 17.1174 32.6966 21.6984 29.9101C25.7297 27.4568 25.7297 23.4589 21.6984 21.0207C17.1341 18.2494 9.62115 18.2494 5.02347 21.0207Z" stroke="#B3B6B7" stroke-width="3" stroke-linecap="round" stroke-linejoin="round"/>
</svg>
