<svg width="30" height="30" viewBox="0 0 30 30" fill="none" xmlns="http://www.w3.org/2000/svg">
<path d="M25.1249 18.7949C22.4476 21.4593 18.6135 22.2781 15.2474 21.2253L9.12596 27.3338C8.68407 27.7887 7.81329 28.0616 7.18945 27.9706L4.35617 27.5807C3.4204 27.4508 2.54962 26.567 2.40666 25.6312L2.01676 22.7979C1.92578 22.1741 2.2247 21.3033 2.6536 20.8614L8.76205 14.753C7.72232 11.3739 8.52811 7.53985 11.2054 4.87552C15.0394 1.04149 21.2649 1.04149 25.1119 4.87552C28.9589 8.70956 28.9589 14.9609 25.1249 18.7949Z" stroke="#B3B6B7" stroke-width="3" stroke-miterlimit="10" stroke-linecap="round" stroke-linejoin="round"/>
<path d="M8.35905 22.1219L11.3485 25.1113" stroke="#B3B6B7" stroke-width="3" stroke-miterlimit="10" stroke-linecap="round" stroke-linejoin="round"/>
<path d="M18.2498 13.6876C19.3265 13.6876 20.1994 12.8147 20.1994 11.738C20.1994 10.6612 19.3265 9.78835 18.2498 9.78835C17.173 9.78835 16.3001 10.6612 16.3001 11.738C16.3001 12.8147 17.173 13.6876 18.2498 13.6876Z" stroke="#B3B6B7" stroke-width="3" stroke-linecap="round" stroke-linejoin="round"/>
</svg>
