<svg width="29" height="29" viewBox="0 0 29 29" fill="none" xmlns="http://www.w3.org/2000/svg">
<path d="M11.5301 12.2708C11.5301 13.0255 11.7398 13.1374 12.215 13.3051L12.9277 13.5566V11.1807H12.5084C11.9774 11.1807 11.5301 11.6699 11.5301 12.2708Z" fill="#FCA7E2"/>
<path d="M15.0241 18.8686H15.4434C15.9884 18.8686 16.4217 18.3794 16.4217 17.7785C16.4217 17.0238 16.212 16.912 15.7369 16.7442L15.0241 16.4927V18.8686Z" fill="#FCA7E2"/>
<path d="M24.5696 5.91183L21.7046 8.77689C21.4949 8.98653 21.2294 9.08436 20.9639 9.08436C20.6983 9.08436 20.4328 8.98653 20.2231 8.77689C19.8178 8.37159 19.8178 7.70075 20.2231 7.29545L23.0882 4.43039C20.6284 2.334 17.4559 1.04822 13.9759 1.04822C6.2612 1.04822 0 7.30942 0 15.0241C0 22.7388 6.2612 29 13.9759 29C21.6906 29 27.9518 22.7388 27.9518 15.0241C27.9518 11.5441 26.666 8.37159 24.5696 5.91183ZM16.4217 14.7726C17.3161 15.094 18.5181 15.7369 18.5181 17.7913C18.5181 19.5383 17.1345 20.9779 15.4434 20.9779H15.0241V21.3273C15.0241 21.9003 14.5489 22.3754 13.9759 22.3754C13.4029 22.3754 12.9277 21.9003 12.9277 21.3273V20.9779H12.8159C10.9571 20.9779 9.43373 19.4126 9.43373 17.4839C9.43373 16.8969 9.90892 16.4217 10.4819 16.4217C11.0549 16.4217 11.5301 16.8969 11.5301 17.4699C11.5301 18.2386 12.1031 18.8675 12.8159 18.8675H12.9277V15.7648L11.5301 15.2757C10.6357 14.9542 9.43373 14.3113 9.43373 12.2569C9.43373 10.5099 10.8173 9.07039 12.5084 9.07039H12.9277V8.73496C12.9277 8.16195 13.4029 7.68677 13.9759 7.68677C14.5489 7.68677 15.0241 8.16195 15.0241 8.73496V9.08436H15.1359C16.9947 9.08436 18.5181 10.6497 18.5181 12.5783C18.5181 13.1514 18.0429 13.6265 17.4699 13.6265C16.8969 13.6265 16.4217 13.1514 16.4217 12.5783C16.4217 11.8097 15.8487 11.1807 15.1359 11.1807H15.0241V14.2834L16.4217 14.7726Z" fill="#FCA7E2"/>
<path d="M28.9162 0.642892C28.8043 0.391325 28.6087 0.181687 28.3431 0.0698794C28.2174 0.0279517 28.0916 0 27.9518 0H22.3615C21.7884 0 21.3133 0.475181 21.3133 1.04819C21.3133 1.6212 21.7884 2.09639 22.3615 2.09639H25.4222L23.0882 4.43036C23.6193 4.89157 24.1084 5.38072 24.5696 5.91181L26.9036 3.57783V6.63855C26.9036 7.21157 27.3788 7.68675 27.9518 7.68675C28.5248 7.68675 29 7.21157 29 6.63855V1.04819C29 0.908434 28.9721 0.782651 28.9162 0.642892Z" fill="#FCA7E2"/>
</svg>
