<svg width="29" height="29" viewBox="0 0 29 29" fill="none" xmlns="http://www.w3.org/2000/svg">
<path d="M17.4699 16.7292C17.4699 15.9745 17.2602 15.8626 16.785 15.6949L16.0723 15.4434V17.8193H16.4916C17.0226 17.8193 17.4699 17.3301 17.4699 16.7292Z" fill="#64D9FC"/>
<path d="M13.9759 10.1314H13.5566C13.0116 10.1314 12.5783 10.6206 12.5783 11.2215C12.5783 11.9762 12.7879 12.088 13.2631 12.2558L13.9759 12.5073V10.1314Z" fill="#64D9FC"/>
<path d="M4.43036 23.0882L7.29542 20.2231C7.50506 20.0135 7.7706 19.9156 8.03615 19.9156C8.30169 19.9156 8.56723 20.0135 8.77687 20.2231C9.18217 20.6284 9.18217 21.2993 8.77687 21.7046L5.91181 24.5696C8.37157 26.666 11.5441 27.9518 15.0241 27.9518C22.7388 27.9518 29 21.6906 29 13.9759C29 6.26118 22.7388 -2.28882e-05 15.0241 -2.28882e-05C7.3094 -2.28882e-05 1.04819 6.26118 1.04819 13.9759C1.04819 17.4559 2.33398 20.6284 4.43036 23.0882ZM12.5783 14.2274C11.6839 13.906 10.4819 13.2631 10.4819 11.2087C10.4819 9.46166 11.8655 8.02214 13.5566 8.02214H13.9759V7.67275C13.9759 7.09974 14.4511 6.62455 15.0241 6.62455C15.5971 6.62455 16.0723 7.09974 16.0723 7.67275V8.02214H16.1841C18.0429 8.02214 19.5663 9.58745 19.5663 11.5161C19.5663 12.1031 19.0911 12.5783 18.5181 12.5783C17.9451 12.5783 17.4699 12.1031 17.4699 11.5301C17.4699 10.7614 16.8969 10.1325 16.1841 10.1325H16.0723V13.2352L17.4699 13.7243C18.3643 14.0458 19.5663 14.6887 19.5663 16.7431C19.5663 18.4901 18.1827 19.9296 16.4916 19.9296H16.0723V20.265C16.0723 20.838 15.5971 21.3132 15.0241 21.3132C14.4511 21.3132 13.9759 20.838 13.9759 20.265V19.9156H13.8641C12.0053 19.9156 10.4819 18.3503 10.4819 16.4217C10.4819 15.8486 10.9571 15.3735 11.5301 15.3735C12.1031 15.3735 12.5783 15.8486 12.5783 16.4217C12.5783 17.1903 13.1513 17.8193 13.8641 17.8193H13.9759V14.7166L12.5783 14.2274Z" fill="#64D9FC"/>
<path d="M0.0838375 28.3571C0.195645 28.6087 0.391307 28.8183 0.656849 28.9301C0.782632 28.972 0.908417 29 1.04818 29H6.63854C7.21155 29 7.68673 28.5248 7.68673 27.9518C7.68673 27.3788 7.21155 26.9036 6.63854 26.9036H3.57781L5.91179 24.5696C5.3807 24.1084 4.89155 23.6193 4.43034 23.0882L2.09637 25.4222V22.3614C2.09637 21.7884 1.62119 21.3133 1.04818 21.3133C0.475163 21.3133 -1.71661e-05 21.7884 -1.71661e-05 22.3614V27.9518C-1.71661e-05 28.0916 0.0279341 28.2173 0.0838375 28.3571Z" fill="#64D9FC"/>
</svg>
